<mxfile host="app.diagrams.net" agent="Mozilla/5.0 (Windows NT 10.0; Win64; x64) AppleWebKit/537.36 (KHTML, like Gecko) Chrome/132.0.0.0 Safari/537.36" version="26.0.14">
  <diagram name="第 1 页" id="oxNDZti3ONMTFiFaA6Zh">
    <mxGraphModel dx="1646" dy="1591" grid="1" gridSize="10" guides="1" tooltips="1" connect="1" arrows="1" fold="1" page="1" pageScale="1" pageWidth="827" pageHeight="1169" math="0" shadow="0">
      <root>
        <mxCell id="0" />
        <mxCell id="1" parent="0" />
        <mxCell id="EVYODXjEfWts-_Gynw_X-84" value="" style="whiteSpace=wrap;html=1;aspect=fixed;movable=0;resizable=0;rotatable=0;deletable=0;editable=0;locked=1;connectable=0;" vertex="1" parent="1">
          <mxGeometry x="-480" y="-90" width="1360" height="1360" as="geometry" />
        </mxCell>
        <mxCell id="EVYODXjEfWts-_Gynw_X-1" value="ASRAM" style="rounded=0;whiteSpace=wrap;html=1;" vertex="1" parent="1">
          <mxGeometry x="-22" y="520" width="100" height="230" as="geometry" />
        </mxCell>
        <mxCell id="EVYODXjEfWts-_Gynw_X-2" value="BSRAM" style="rounded=0;whiteSpace=wrap;html=1;" vertex="1" parent="1">
          <mxGeometry x="460" y="40" width="230" height="100" as="geometry" />
        </mxCell>
        <mxCell id="EVYODXjEfWts-_Gynw_X-4" value="" style="whiteSpace=wrap;html=1;aspect=fixed;" vertex="1" parent="1">
          <mxGeometry x="275" y="340" width="500" height="500" as="geometry" />
        </mxCell>
        <mxCell id="EVYODXjEfWts-_Gynw_X-5" value="" style="endArrow=classic;html=1;rounded=0;entryX=-0.002;entryY=0.217;entryDx=0;entryDy=0;entryPerimeter=0;" edge="1" parent="1">
          <mxGeometry relative="1" as="geometry">
            <mxPoint x="76.5" y="586.5" as="sourcePoint" />
            <mxPoint x="273.00000000000045" y="585" as="targetPoint" />
          </mxGeometry>
        </mxCell>
        <mxCell id="EVYODXjEfWts-_Gynw_X-6" value="1" style="edgeLabel;resizable=0;html=1;;align=center;verticalAlign=middle;" connectable="0" vertex="1" parent="EVYODXjEfWts-_Gynw_X-5">
          <mxGeometry relative="1" as="geometry" />
        </mxCell>
        <mxCell id="EVYODXjEfWts-_Gynw_X-7" value="wr_en_a" style="edgeLabel;resizable=0;html=1;;align=left;verticalAlign=bottom;" connectable="0" vertex="1" parent="EVYODXjEfWts-_Gynw_X-5">
          <mxGeometry x="-1" relative="1" as="geometry">
            <mxPoint x="12" as="offset" />
          </mxGeometry>
        </mxCell>
        <mxCell id="EVYODXjEfWts-_Gynw_X-8" value="16" style="endArrow=classic;html=1;rounded=0;entryX=0.005;entryY=0.365;entryDx=0;entryDy=0;entryPerimeter=0;" edge="1" parent="1">
          <mxGeometry relative="1" as="geometry">
            <mxPoint x="78" y="626" as="sourcePoint" />
            <mxPoint x="275" y="625" as="targetPoint" />
          </mxGeometry>
        </mxCell>
        <mxCell id="EVYODXjEfWts-_Gynw_X-10" value="index_a" style="edgeLabel;resizable=0;html=1;;align=left;verticalAlign=bottom;" connectable="0" vertex="1" parent="EVYODXjEfWts-_Gynw_X-8">
          <mxGeometry x="-1" relative="1" as="geometry">
            <mxPoint x="10" as="offset" />
          </mxGeometry>
        </mxCell>
        <mxCell id="EVYODXjEfWts-_Gynw_X-11" value="32" style="endArrow=classic;html=1;rounded=0;entryX=0.005;entryY=0.365;entryDx=0;entryDy=0;entryPerimeter=0;" edge="1" parent="1">
          <mxGeometry relative="1" as="geometry">
            <mxPoint x="78" y="666" as="sourcePoint" />
            <mxPoint x="275" y="665" as="targetPoint" />
          </mxGeometry>
        </mxCell>
        <mxCell id="EVYODXjEfWts-_Gynw_X-13" value="data_in_a" style="edgeLabel;resizable=0;html=1;;align=left;verticalAlign=bottom;" connectable="0" vertex="1" parent="EVYODXjEfWts-_Gynw_X-11">
          <mxGeometry x="-1" relative="1" as="geometry">
            <mxPoint x="10" as="offset" />
          </mxGeometry>
        </mxCell>
        <mxCell id="EVYODXjEfWts-_Gynw_X-14" value="32" style="endArrow=classic;html=1;rounded=0;entryX=0.005;entryY=0.365;entryDx=0;entryDy=0;entryPerimeter=0;" edge="1" parent="1">
          <mxGeometry relative="1" as="geometry">
            <mxPoint x="273" y="706" as="sourcePoint" />
            <mxPoint x="76" y="705" as="targetPoint" />
          </mxGeometry>
        </mxCell>
        <mxCell id="EVYODXjEfWts-_Gynw_X-16" value="data_out_a" style="edgeLabel;resizable=0;html=1;;align=left;verticalAlign=bottom;" connectable="0" vertex="1" parent="EVYODXjEfWts-_Gynw_X-14">
          <mxGeometry x="-1" relative="1" as="geometry">
            <mxPoint x="-185" as="offset" />
          </mxGeometry>
        </mxCell>
        <mxCell id="EVYODXjEfWts-_Gynw_X-27" value="PE00" style="whiteSpace=wrap;html=1;aspect=fixed;" vertex="1" parent="1">
          <mxGeometry x="450" y="510" width="80" height="80" as="geometry" />
        </mxCell>
        <mxCell id="EVYODXjEfWts-_Gynw_X-28" value="PE70" style="whiteSpace=wrap;html=1;aspect=fixed;" vertex="1" parent="1">
          <mxGeometry x="450" y="725" width="80" height="80" as="geometry" />
        </mxCell>
        <mxCell id="EVYODXjEfWts-_Gynw_X-29" value="PE77" style="whiteSpace=wrap;html=1;aspect=fixed;" vertex="1" parent="1">
          <mxGeometry x="670" y="725" width="80" height="80" as="geometry" />
        </mxCell>
        <mxCell id="EVYODXjEfWts-_Gynw_X-30" value="PE07" style="whiteSpace=wrap;html=1;aspect=fixed;" vertex="1" parent="1">
          <mxGeometry x="670" y="510" width="80" height="80" as="geometry" />
        </mxCell>
        <mxCell id="EVYODXjEfWts-_Gynw_X-32" value="CSRAM" style="rounded=0;whiteSpace=wrap;html=1;" vertex="1" parent="1">
          <mxGeometry x="414" y="1037" width="230" height="100" as="geometry" />
        </mxCell>
        <mxCell id="EVYODXjEfWts-_Gynw_X-40" value="" style="endArrow=classic;html=1;rounded=0;entryX=0.005;entryY=0.365;entryDx=0;entryDy=0;entryPerimeter=0;" edge="1" parent="1">
          <mxGeometry relative="1" as="geometry">
            <mxPoint x="605.5" y="1037" as="sourcePoint" />
            <mxPoint x="606.5" y="840" as="targetPoint" />
          </mxGeometry>
        </mxCell>
        <mxCell id="EVYODXjEfWts-_Gynw_X-41" value="1" style="edgeLabel;resizable=0;html=1;;align=center;verticalAlign=middle;rotation=90;horizontal=0;" connectable="0" vertex="1" parent="EVYODXjEfWts-_Gynw_X-40">
          <mxGeometry relative="1" as="geometry" />
        </mxCell>
        <mxCell id="EVYODXjEfWts-_Gynw_X-42" value="wr_en_c" style="edgeLabel;resizable=0;html=1;;align=left;verticalAlign=bottom;rotation=90;horizontal=0;" connectable="0" vertex="1" parent="EVYODXjEfWts-_Gynw_X-40">
          <mxGeometry x="-1" relative="1" as="geometry">
            <mxPoint x="5" y="-17" as="offset" />
          </mxGeometry>
        </mxCell>
        <mxCell id="EVYODXjEfWts-_Gynw_X-43" value="16" style="endArrow=classic;html=1;rounded=0;entryX=0.005;entryY=0.365;entryDx=0;entryDy=0;entryPerimeter=0;" edge="1" parent="1">
          <mxGeometry relative="1" as="geometry">
            <mxPoint x="555.5" y="1037" as="sourcePoint" />
            <mxPoint x="556.5" y="840" as="targetPoint" />
          </mxGeometry>
        </mxCell>
        <mxCell id="EVYODXjEfWts-_Gynw_X-44" value="index_c" style="edgeLabel;resizable=0;html=1;;align=left;verticalAlign=bottom;rotation=90;horizontal=0;" connectable="0" vertex="1" parent="EVYODXjEfWts-_Gynw_X-43">
          <mxGeometry x="-1" relative="1" as="geometry">
            <mxPoint x="6" y="-17" as="offset" />
          </mxGeometry>
        </mxCell>
        <mxCell id="EVYODXjEfWts-_Gynw_X-45" value="128" style="endArrow=classic;html=1;rounded=0;entryX=0.005;entryY=0.365;entryDx=0;entryDy=0;entryPerimeter=0;" edge="1" parent="1">
          <mxGeometry relative="1" as="geometry">
            <mxPoint x="503.5" y="1037" as="sourcePoint" />
            <mxPoint x="504.5" y="840" as="targetPoint" />
          </mxGeometry>
        </mxCell>
        <mxCell id="EVYODXjEfWts-_Gynw_X-46" value="data_in_c" style="edgeLabel;resizable=0;html=1;;align=left;verticalAlign=bottom;rotation=90;horizontal=0;" connectable="0" vertex="1" parent="EVYODXjEfWts-_Gynw_X-45">
          <mxGeometry x="-1" relative="1" as="geometry">
            <mxPoint y="-17" as="offset" />
          </mxGeometry>
        </mxCell>
        <mxCell id="EVYODXjEfWts-_Gynw_X-47" value="128" style="endArrow=classic;html=1;rounded=0;entryX=0.112;entryY=-0.003;entryDx=0;entryDy=0;entryPerimeter=0;exitX=0.331;exitY=1;exitDx=0;exitDy=0;exitPerimeter=0;" edge="1" parent="1" source="EVYODXjEfWts-_Gynw_X-4" target="EVYODXjEfWts-_Gynw_X-32">
          <mxGeometry relative="1" as="geometry">
            <mxPoint x="443.5" y="840" as="sourcePoint" />
            <mxPoint x="445.5" y="1037" as="targetPoint" />
          </mxGeometry>
        </mxCell>
        <mxCell id="EVYODXjEfWts-_Gynw_X-48" value="data_out_c" style="edgeLabel;resizable=0;html=1;;align=left;verticalAlign=bottom;rotation=90;horizontal=0;" connectable="0" vertex="1" parent="EVYODXjEfWts-_Gynw_X-47">
          <mxGeometry x="-1" relative="1" as="geometry">
            <mxPoint y="180" as="offset" />
          </mxGeometry>
        </mxCell>
        <mxCell id="EVYODXjEfWts-_Gynw_X-49" value="ABUFFER" style="rounded=0;whiteSpace=wrap;html=1;" vertex="1" parent="1">
          <mxGeometry x="348" y="500" width="60" height="310" as="geometry" />
        </mxCell>
        <mxCell id="EVYODXjEfWts-_Gynw_X-51" value="BBUFFER" style="rounded=0;whiteSpace=wrap;html=1;" vertex="1" parent="1">
          <mxGeometry x="440" y="430" width="310" height="60" as="geometry" />
        </mxCell>
        <mxCell id="EVYODXjEfWts-_Gynw_X-53" value="CONTROL" style="whiteSpace=wrap;html=1;aspect=fixed;" vertex="1" parent="1">
          <mxGeometry x="300" y="360" width="110" height="110" as="geometry" />
        </mxCell>
        <mxCell id="EVYODXjEfWts-_Gynw_X-54" value="" style="whiteSpace=wrap;html=1;aspect=fixed;" vertex="1" parent="1">
          <mxGeometry x="941" y="370" width="490" height="490" as="geometry" />
        </mxCell>
        <mxCell id="EVYODXjEfWts-_Gynw_X-55" value="" style="endArrow=none;html=1;rounded=0;" edge="1" parent="1">
          <mxGeometry width="50" height="50" relative="1" as="geometry">
            <mxPoint x="750" y="510" as="sourcePoint" />
            <mxPoint x="940" y="370" as="targetPoint" />
          </mxGeometry>
        </mxCell>
        <mxCell id="EVYODXjEfWts-_Gynw_X-56" value="" style="endArrow=none;html=1;rounded=0;exitX=1;exitY=1;exitDx=0;exitDy=0;entryX=-0.005;entryY=0.992;entryDx=0;entryDy=0;entryPerimeter=0;" edge="1" parent="1" source="EVYODXjEfWts-_Gynw_X-30" target="EVYODXjEfWts-_Gynw_X-54">
          <mxGeometry width="50" height="50" relative="1" as="geometry">
            <mxPoint x="850" y="610" as="sourcePoint" />
            <mxPoint x="950" y="670" as="targetPoint" />
          </mxGeometry>
        </mxCell>
        <mxCell id="EVYODXjEfWts-_Gynw_X-72" style="edgeStyle=orthogonalEdgeStyle;rounded=0;orthogonalLoop=1;jettySize=auto;html=1;entryX=1.001;entryY=0.23;entryDx=0;entryDy=0;entryPerimeter=0;jumpStyle=arc;jumpSize=20;startArrow=none;startFill=0;" edge="1" parent="1" target="EVYODXjEfWts-_Gynw_X-54">
          <mxGeometry relative="1" as="geometry">
            <mxPoint x="1060" y="550" as="sourcePoint" />
            <mxPoint x="1402.96" y="461.6300000000001" as="targetPoint" />
            <Array as="points">
              <mxPoint x="1060" y="483" />
            </Array>
          </mxGeometry>
        </mxCell>
        <mxCell id="EVYODXjEfWts-_Gynw_X-58" value="L_Buffer" style="rounded=0;whiteSpace=wrap;html=1;" vertex="1" parent="1">
          <mxGeometry x="970" y="445" width="50" height="210" as="geometry" />
        </mxCell>
        <mxCell id="EVYODXjEfWts-_Gynw_X-74" style="edgeStyle=orthogonalEdgeStyle;rounded=0;orthogonalLoop=1;jettySize=auto;html=1;exitX=1;exitY=0.5;exitDx=0;exitDy=0;entryX=0.2;entryY=1.004;entryDx=0;entryDy=0;entryPerimeter=0;" edge="1" parent="1" source="EVYODXjEfWts-_Gynw_X-59" target="EVYODXjEfWts-_Gynw_X-54">
          <mxGeometry relative="1" as="geometry">
            <Array as="points">
              <mxPoint x="1125" y="445" />
              <mxPoint x="1040" y="445" />
              <mxPoint x="1040" y="790" />
              <mxPoint x="1039" y="790" />
            </Array>
          </mxGeometry>
        </mxCell>
        <mxCell id="EVYODXjEfWts-_Gynw_X-59" value="U_Buffer" style="rounded=0;whiteSpace=wrap;html=1;rotation=90;horizontal=0;" vertex="1" parent="1">
          <mxGeometry x="1105" y="300" width="40" height="210" as="geometry" />
        </mxCell>
        <mxCell id="EVYODXjEfWts-_Gynw_X-60" value="" style="verticalLabelPosition=bottom;verticalAlign=top;html=1;shape=mxgraph.flowchart.or;" vertex="1" parent="1">
          <mxGeometry x="1100" y="525" width="50" height="50" as="geometry" />
        </mxCell>
        <mxCell id="EVYODXjEfWts-_Gynw_X-68" style="edgeStyle=orthogonalEdgeStyle;rounded=0;orthogonalLoop=1;jettySize=auto;html=1;exitX=0.5;exitY=1;exitDx=0;exitDy=0;exitPerimeter=0;" edge="1" parent="1" source="EVYODXjEfWts-_Gynw_X-61" target="EVYODXjEfWts-_Gynw_X-64">
          <mxGeometry relative="1" as="geometry" />
        </mxCell>
        <mxCell id="EVYODXjEfWts-_Gynw_X-61" value="" style="verticalLabelPosition=bottom;verticalAlign=top;html=1;shape=mxgraph.flowchart.summing_function;" vertex="1" parent="1">
          <mxGeometry x="1225" y="590" width="50" height="50" as="geometry" />
        </mxCell>
        <mxCell id="EVYODXjEfWts-_Gynw_X-62" value="" style="endArrow=classic;html=1;rounded=0;entryX=0;entryY=0.5;entryDx=0;entryDy=0;entryPerimeter=0;jumpStyle=arc;" edge="1" parent="1" target="EVYODXjEfWts-_Gynw_X-60">
          <mxGeometry width="50" height="50" relative="1" as="geometry">
            <mxPoint x="1020" y="550" as="sourcePoint" />
            <mxPoint x="1070" y="500" as="targetPoint" />
            <Array as="points" />
          </mxGeometry>
        </mxCell>
        <mxCell id="EVYODXjEfWts-_Gynw_X-64" value="ACC" style="rounded=0;whiteSpace=wrap;html=1;rotation=90;horizontal=0;" vertex="1" parent="1">
          <mxGeometry x="1230" y="630" width="40" height="210" as="geometry" />
        </mxCell>
        <mxCell id="EVYODXjEfWts-_Gynw_X-69" style="edgeStyle=orthogonalEdgeStyle;rounded=0;orthogonalLoop=1;jettySize=auto;html=1;entryX=0.5;entryY=0;entryDx=0;entryDy=0;entryPerimeter=0;exitX=1;exitY=0.5;exitDx=0;exitDy=0;" edge="1" parent="1" source="EVYODXjEfWts-_Gynw_X-64" target="EVYODXjEfWts-_Gynw_X-61">
          <mxGeometry relative="1" as="geometry">
            <Array as="points">
              <mxPoint x="1250" y="810" />
              <mxPoint x="1400" y="810" />
              <mxPoint x="1400" y="570" />
              <mxPoint x="1250" y="570" />
            </Array>
          </mxGeometry>
        </mxCell>
        <mxCell id="EVYODXjEfWts-_Gynw_X-70" style="edgeStyle=orthogonalEdgeStyle;rounded=0;orthogonalLoop=1;jettySize=auto;html=1;exitX=1;exitY=0.5;exitDx=0;exitDy=0;exitPerimeter=0;entryX=0;entryY=0.5;entryDx=0;entryDy=0;entryPerimeter=0;" edge="1" parent="1" source="EVYODXjEfWts-_Gynw_X-60" target="EVYODXjEfWts-_Gynw_X-61">
          <mxGeometry relative="1" as="geometry" />
        </mxCell>
        <mxCell id="EVYODXjEfWts-_Gynw_X-71" style="edgeStyle=orthogonalEdgeStyle;rounded=0;orthogonalLoop=1;jettySize=auto;html=1;exitX=1;exitY=0.5;exitDx=0;exitDy=0;jumpStyle=arc;" edge="1" parent="1" source="EVYODXjEfWts-_Gynw_X-59" target="EVYODXjEfWts-_Gynw_X-60">
          <mxGeometry relative="1" as="geometry" />
        </mxCell>
        <mxCell id="EVYODXjEfWts-_Gynw_X-75" value="" style="endArrow=none;dashed=1;html=1;dashPattern=1 3;strokeWidth=2;rounded=0;entryX=0.5;entryY=1;entryDx=0;entryDy=0;exitX=0.5;exitY=0;exitDx=0;exitDy=0;" edge="1" parent="1" source="EVYODXjEfWts-_Gynw_X-28" target="EVYODXjEfWts-_Gynw_X-27">
          <mxGeometry width="50" height="50" relative="1" as="geometry">
            <mxPoint x="560" y="740" as="sourcePoint" />
            <mxPoint x="610" y="690" as="targetPoint" />
          </mxGeometry>
        </mxCell>
        <mxCell id="EVYODXjEfWts-_Gynw_X-77" value="" style="endArrow=none;dashed=1;html=1;dashPattern=1 3;strokeWidth=2;rounded=0;entryX=1;entryY=0.5;entryDx=0;entryDy=0;exitX=0;exitY=0.5;exitDx=0;exitDy=0;" edge="1" parent="1" source="EVYODXjEfWts-_Gynw_X-30" target="EVYODXjEfWts-_Gynw_X-27">
          <mxGeometry width="50" height="50" relative="1" as="geometry">
            <mxPoint x="500" y="735" as="sourcePoint" />
            <mxPoint x="500" y="600" as="targetPoint" />
          </mxGeometry>
        </mxCell>
        <mxCell id="EVYODXjEfWts-_Gynw_X-79" value="" style="endArrow=none;dashed=1;html=1;dashPattern=1 3;strokeWidth=2;rounded=0;entryX=1;entryY=0.5;entryDx=0;entryDy=0;exitX=0;exitY=0.5;exitDx=0;exitDy=0;" edge="1" parent="1">
          <mxGeometry width="50" height="50" relative="1" as="geometry">
            <mxPoint x="670" y="764.66" as="sourcePoint" />
            <mxPoint x="530" y="764.66" as="targetPoint" />
          </mxGeometry>
        </mxCell>
        <mxCell id="EVYODXjEfWts-_Gynw_X-80" value="" style="endArrow=none;dashed=1;html=1;dashPattern=1 3;strokeWidth=2;rounded=0;entryX=0.5;entryY=1;entryDx=0;entryDy=0;exitX=0.5;exitY=0;exitDx=0;exitDy=0;" edge="1" parent="1">
          <mxGeometry width="50" height="50" relative="1" as="geometry">
            <mxPoint x="550" y="720" as="sourcePoint" />
            <mxPoint x="550" y="585" as="targetPoint" />
          </mxGeometry>
        </mxCell>
        <mxCell id="EVYODXjEfWts-_Gynw_X-81" value="" style="endArrow=none;dashed=1;html=1;dashPattern=1 3;strokeWidth=2;rounded=0;entryX=0.5;entryY=1;entryDx=0;entryDy=0;exitX=0.5;exitY=0;exitDx=0;exitDy=0;" edge="1" parent="1">
          <mxGeometry width="50" height="50" relative="1" as="geometry">
            <mxPoint x="600" y="720" as="sourcePoint" />
            <mxPoint x="600" y="585" as="targetPoint" />
          </mxGeometry>
        </mxCell>
        <mxCell id="EVYODXjEfWts-_Gynw_X-82" value="" style="endArrow=none;dashed=1;html=1;dashPattern=1 3;strokeWidth=2;rounded=0;entryX=0.5;entryY=1;entryDx=0;entryDy=0;exitX=0.5;exitY=0;exitDx=0;exitDy=0;" edge="1" parent="1">
          <mxGeometry width="50" height="50" relative="1" as="geometry">
            <mxPoint x="644" y="720" as="sourcePoint" />
            <mxPoint x="644" y="585" as="targetPoint" />
          </mxGeometry>
        </mxCell>
        <mxCell id="EVYODXjEfWts-_Gynw_X-83" value="" style="endArrow=none;dashed=1;html=1;dashPattern=1 3;strokeWidth=2;rounded=0;entryX=0.5;entryY=1;entryDx=0;entryDy=0;exitX=0.5;exitY=0;exitDx=0;exitDy=0;" edge="1" parent="1">
          <mxGeometry width="50" height="50" relative="1" as="geometry">
            <mxPoint x="709.66" y="722.5" as="sourcePoint" />
            <mxPoint x="709.66" y="587.5" as="targetPoint" />
          </mxGeometry>
        </mxCell>
        <mxCell id="EVYODXjEfWts-_Gynw_X-85" value="&lt;font style=&quot;font-size: 72px;&quot;&gt;PATTEN&lt;/font&gt;" style="text;html=1;align=center;verticalAlign=middle;resizable=0;points=[];autosize=1;strokeColor=none;fillColor=none;" vertex="1" parent="1">
          <mxGeometry x="-30" y="-60" width="300" height="100" as="geometry" />
        </mxCell>
        <mxCell id="EVYODXjEfWts-_Gynw_X-86" value="&lt;font style=&quot;font-size: 48px;&quot;&gt;SA&lt;/font&gt;" style="text;html=1;align=center;verticalAlign=middle;resizable=0;points=[];autosize=1;strokeColor=none;fillColor=none;" vertex="1" parent="1">
          <mxGeometry x="680" y="340" width="90" height="70" as="geometry" />
        </mxCell>
        <mxCell id="EVYODXjEfWts-_Gynw_X-88" value="" style="endArrow=classic;html=1;rounded=0;entryX=-0.002;entryY=0.217;entryDx=0;entryDy=0;entryPerimeter=0;" edge="1" parent="1">
          <mxGeometry relative="1" as="geometry">
            <mxPoint x="78.5" y="344.25" as="sourcePoint" />
            <mxPoint x="275.00000000000045" y="342.75" as="targetPoint" />
          </mxGeometry>
        </mxCell>
        <mxCell id="EVYODXjEfWts-_Gynw_X-89" value="1" style="edgeLabel;resizable=0;html=1;;align=center;verticalAlign=middle;" connectable="0" vertex="1" parent="EVYODXjEfWts-_Gynw_X-88">
          <mxGeometry relative="1" as="geometry" />
        </mxCell>
        <mxCell id="EVYODXjEfWts-_Gynw_X-90" value="clk" style="edgeLabel;resizable=0;html=1;;align=left;verticalAlign=bottom;" connectable="0" vertex="1" parent="EVYODXjEfWts-_Gynw_X-88">
          <mxGeometry x="-1" relative="1" as="geometry">
            <mxPoint x="12" as="offset" />
          </mxGeometry>
        </mxCell>
        <mxCell id="EVYODXjEfWts-_Gynw_X-91" value="" style="endArrow=classic;html=1;rounded=0;entryX=-0.002;entryY=0.217;entryDx=0;entryDy=0;entryPerimeter=0;" edge="1" parent="1">
          <mxGeometry relative="1" as="geometry">
            <mxPoint x="78" y="374.25" as="sourcePoint" />
            <mxPoint x="274.50000000000045" y="372.75" as="targetPoint" />
          </mxGeometry>
        </mxCell>
        <mxCell id="EVYODXjEfWts-_Gynw_X-92" value="1" style="edgeLabel;resizable=0;html=1;;align=center;verticalAlign=middle;" connectable="0" vertex="1" parent="EVYODXjEfWts-_Gynw_X-91">
          <mxGeometry relative="1" as="geometry" />
        </mxCell>
        <mxCell id="EVYODXjEfWts-_Gynw_X-93" value="rst_n" style="edgeLabel;resizable=0;html=1;;align=left;verticalAlign=bottom;" connectable="0" vertex="1" parent="EVYODXjEfWts-_Gynw_X-91">
          <mxGeometry x="-1" relative="1" as="geometry">
            <mxPoint x="12" as="offset" />
          </mxGeometry>
        </mxCell>
        <mxCell id="EVYODXjEfWts-_Gynw_X-94" value="" style="endArrow=classic;html=1;rounded=0;entryX=-0.002;entryY=0.217;entryDx=0;entryDy=0;entryPerimeter=0;" edge="1" parent="1">
          <mxGeometry relative="1" as="geometry">
            <mxPoint x="78.5" y="400" as="sourcePoint" />
            <mxPoint x="275.00000000000045" y="398.5" as="targetPoint" />
          </mxGeometry>
        </mxCell>
        <mxCell id="EVYODXjEfWts-_Gynw_X-95" value="1" style="edgeLabel;resizable=0;html=1;;align=center;verticalAlign=middle;" connectable="0" vertex="1" parent="EVYODXjEfWts-_Gynw_X-94">
          <mxGeometry relative="1" as="geometry" />
        </mxCell>
        <mxCell id="EVYODXjEfWts-_Gynw_X-96" value="in_validn" style="edgeLabel;resizable=0;html=1;;align=left;verticalAlign=bottom;" connectable="0" vertex="1" parent="EVYODXjEfWts-_Gynw_X-94">
          <mxGeometry x="-1" relative="1" as="geometry">
            <mxPoint x="12" as="offset" />
          </mxGeometry>
        </mxCell>
        <mxCell id="EVYODXjEfWts-_Gynw_X-98" value="8" style="endArrow=classic;html=1;rounded=0;entryX=-0.002;entryY=0.217;entryDx=0;entryDy=0;entryPerimeter=0;" edge="1" parent="1">
          <mxGeometry relative="1" as="geometry">
            <mxPoint x="78.5" y="429.25" as="sourcePoint" />
            <mxPoint x="275.00000000000045" y="427.75" as="targetPoint" />
          </mxGeometry>
        </mxCell>
        <mxCell id="EVYODXjEfWts-_Gynw_X-100" value="K" style="edgeLabel;resizable=0;html=1;;align=left;verticalAlign=bottom;" connectable="0" vertex="1" parent="EVYODXjEfWts-_Gynw_X-98">
          <mxGeometry x="-1" relative="1" as="geometry">
            <mxPoint x="12" as="offset" />
          </mxGeometry>
        </mxCell>
        <mxCell id="EVYODXjEfWts-_Gynw_X-104" value="8" style="endArrow=classic;html=1;rounded=0;entryX=-0.002;entryY=0.217;entryDx=0;entryDy=0;entryPerimeter=0;" edge="1" parent="1">
          <mxGeometry relative="1" as="geometry">
            <mxPoint x="78" y="450" as="sourcePoint" />
            <mxPoint x="274.50000000000045" y="448.5" as="targetPoint" />
          </mxGeometry>
        </mxCell>
        <mxCell id="EVYODXjEfWts-_Gynw_X-105" value="M" style="edgeLabel;resizable=0;html=1;;align=left;verticalAlign=bottom;" connectable="0" vertex="1" parent="EVYODXjEfWts-_Gynw_X-104">
          <mxGeometry x="-1" relative="1" as="geometry">
            <mxPoint x="12" as="offset" />
          </mxGeometry>
        </mxCell>
        <mxCell id="EVYODXjEfWts-_Gynw_X-106" value="8" style="endArrow=classic;html=1;rounded=0;entryX=-0.002;entryY=0.217;entryDx=0;entryDy=0;entryPerimeter=0;" edge="1" parent="1">
          <mxGeometry relative="1" as="geometry">
            <mxPoint x="78" y="470" as="sourcePoint" />
            <mxPoint x="274.50000000000045" y="468.5" as="targetPoint" />
          </mxGeometry>
        </mxCell>
        <mxCell id="EVYODXjEfWts-_Gynw_X-107" value="N" style="edgeLabel;resizable=0;html=1;;align=left;verticalAlign=bottom;" connectable="0" vertex="1" parent="EVYODXjEfWts-_Gynw_X-106">
          <mxGeometry x="-1" relative="1" as="geometry">
            <mxPoint x="12" as="offset" />
          </mxGeometry>
        </mxCell>
        <mxCell id="EVYODXjEfWts-_Gynw_X-111" value="1" style="endArrow=classic;html=1;rounded=0;exitX=0.001;exitY=0.297;exitDx=0;exitDy=0;exitPerimeter=0;" edge="1" parent="1" source="EVYODXjEfWts-_Gynw_X-4">
          <mxGeometry relative="1" as="geometry">
            <mxPoint x="260" y="490" as="sourcePoint" />
            <mxPoint x="70" y="490" as="targetPoint" />
          </mxGeometry>
        </mxCell>
        <mxCell id="EVYODXjEfWts-_Gynw_X-112" value="busy" style="edgeLabel;resizable=0;html=1;;align=left;verticalAlign=bottom;" connectable="0" vertex="1" parent="EVYODXjEfWts-_Gynw_X-111">
          <mxGeometry x="-1" relative="1" as="geometry">
            <mxPoint x="-185" y="2" as="offset" />
          </mxGeometry>
        </mxCell>
        <mxCell id="EVYODXjEfWts-_Gynw_X-17" value="" style="endArrow=classic;html=1;rounded=0;entryX=0.005;entryY=0.365;entryDx=0;entryDy=0;entryPerimeter=0;" edge="1" parent="1">
          <mxGeometry relative="1" as="geometry">
            <mxPoint x="669" y="143" as="sourcePoint" />
            <mxPoint x="670" y="340" as="targetPoint" />
          </mxGeometry>
        </mxCell>
        <mxCell id="EVYODXjEfWts-_Gynw_X-18" value="1" style="edgeLabel;resizable=0;html=1;;align=center;verticalAlign=middle;rotation=90;horizontal=0;" connectable="0" vertex="1" parent="EVYODXjEfWts-_Gynw_X-17">
          <mxGeometry relative="1" as="geometry" />
        </mxCell>
        <mxCell id="EVYODXjEfWts-_Gynw_X-19" value="wr_en_b" style="edgeLabel;resizable=0;html=1;;align=left;verticalAlign=bottom;rotation=90;horizontal=0;" connectable="0" vertex="1" parent="EVYODXjEfWts-_Gynw_X-17">
          <mxGeometry x="-1" relative="1" as="geometry">
            <mxPoint x="1" y="27" as="offset" />
          </mxGeometry>
        </mxCell>
        <mxCell id="EVYODXjEfWts-_Gynw_X-20" value="16" style="endArrow=classic;html=1;rounded=0;entryX=0.005;entryY=0.365;entryDx=0;entryDy=0;entryPerimeter=0;" edge="1" parent="1">
          <mxGeometry relative="1" as="geometry">
            <mxPoint x="620" y="143" as="sourcePoint" />
            <mxPoint x="621" y="340" as="targetPoint" />
          </mxGeometry>
        </mxCell>
        <mxCell id="EVYODXjEfWts-_Gynw_X-21" value="index_b" style="edgeLabel;resizable=0;html=1;;align=left;verticalAlign=bottom;rotation=90;horizontal=0;" connectable="0" vertex="1" parent="EVYODXjEfWts-_Gynw_X-20">
          <mxGeometry x="-1" relative="1" as="geometry">
            <mxPoint y="27" as="offset" />
          </mxGeometry>
        </mxCell>
        <mxCell id="EVYODXjEfWts-_Gynw_X-22" value="32" style="endArrow=classic;html=1;rounded=0;entryX=0.005;entryY=0.365;entryDx=0;entryDy=0;entryPerimeter=0;" edge="1" parent="1">
          <mxGeometry relative="1" as="geometry">
            <mxPoint x="560" y="143" as="sourcePoint" />
            <mxPoint x="561" y="340" as="targetPoint" />
          </mxGeometry>
        </mxCell>
        <mxCell id="EVYODXjEfWts-_Gynw_X-23" value="data_in_b" style="edgeLabel;resizable=0;html=1;;align=left;verticalAlign=bottom;rotation=90;horizontal=0;" connectable="0" vertex="1" parent="EVYODXjEfWts-_Gynw_X-22">
          <mxGeometry x="-1" relative="1" as="geometry">
            <mxPoint y="27" as="offset" />
          </mxGeometry>
        </mxCell>
        <mxCell id="EVYODXjEfWts-_Gynw_X-24" value="32" style="endArrow=classic;html=1;rounded=0;entryX=0.005;entryY=0.365;entryDx=0;entryDy=0;entryPerimeter=0;" edge="1" parent="1">
          <mxGeometry relative="1" as="geometry">
            <mxPoint x="493.5" y="340" as="sourcePoint" />
            <mxPoint x="495.5" y="143" as="targetPoint" />
          </mxGeometry>
        </mxCell>
        <mxCell id="EVYODXjEfWts-_Gynw_X-25" value="data_out_b" style="edgeLabel;resizable=0;html=1;;align=left;verticalAlign=bottom;rotation=90;horizontal=0;" connectable="0" vertex="1" parent="EVYODXjEfWts-_Gynw_X-24">
          <mxGeometry x="-1" relative="1" as="geometry">
            <mxPoint x="2" y="-170" as="offset" />
          </mxGeometry>
        </mxCell>
      </root>
    </mxGraphModel>
  </diagram>
</mxfile>
